<svg viewBox="0 0 396 84.9651" width="140px" height="30.44px" xmlns="http://www.w3.org/2000/svg" xmlns:xlink="http://www.w3.org/1999/xlink" preserveAspectRatio="none"><defs></defs><style>.aIptOCySncolors-0 {fill:#FF834F;fill-opacity:1;}.companyName {fill:#4D4D4D;fill-opacity:1;}.shapeStroke-str {stroke:#313131;stroke-opacity:1;}</style><g opacity="1" transform="rotate(0 0 10.846599999999967)">
        <svg width="67.7902" height="63.2719" x="0" y="10.846599999999967" version="1.1" preserveAspectRatio="none" viewBox="2 4 59.99899673461914 56">
          <g transform="matrix(1 0 0 1 0 0)" class="aIptOCySncolors-0"><g><path d="M28 4v26h8V4h-8zm-12 8v18h8V12h-8zm36 2v16h8V14h-8zM4 19v11h8V19H4zm36 2v9h8v-9h-8zM3.035 31C2.462 31 2 31.431 2 31.967v.066c0 .536.462.967 1.035.967H4v.814L4.814 33H6.23L4 35.229v1.414L7.643 33h1.414L4 38.057v1.414L10.47 33h1.415L4 40.885v1.414l8-8V33h4v1.12L17.12 33h1.413L16 35.533v1.414L19.947 33h1.414l-5.129 5.13-.232.233v1.414l.94-.94L22.774 33H28v1.12L29.12 33h1.413L28 35.533v1.414L31.947 33h1.414l-5.129 5.13-.232.233v1.414l.94-.94L34.774 33H40v1.12L41.12 33h1.413L40 35.533v1.414L43.947 33h1.414l-5.129 5.13-.232.233v1.414l.94-.94L46.774 33H52v1.12L53.12 33h1.413L52 35.533v1.414L55.947 33h1.414l-5.129 5.13-.232.233v1.414l.94-.94L58.774 33h2.19c.573 0 1.035-.431 1.035-.967v-.066c0-.536-.462-.967-1.035-.967H3.035zM24 33.191l-6.354 6.354-1.414 1.414-.232.232v1.414l.94-.939 1.414-1.414L24 34.605v-1.414zm12 0l-6.354 6.354-1.414 1.414-.232.232v1.414l.94-.939 1.414-1.414L36 34.605v-1.414zm12 0l-6.354 6.354-1.414 1.414-.232.232v1.414l.94-.939 1.414-1.414L48 34.605v-1.414zm12 0l-6.354 6.354-1.414 1.414-.232.232v1.414l.94-.939 1.414-1.414L60 34.605v-1.414zm-48 2.522l-8 8V45h.186l-.03-.03L12 37.128v-1.414zm12 .307l-4.94 4.939-1.414 1.414L16 44.02v1.414l3.768-3.768L24 37.434V36.02zm12 0l-4.94 4.939-1.414 1.414L28 44.02v1.414l3.768-3.768L36 37.434V36.02zm12 0l-4.94 4.939-1.414 1.414-.626.627h1.414l1.334-1.334L48 37.434V36.02zm12 0l-4.94 4.939-1.414 1.414L52 44.02v1.414l3.768-3.768L60 37.434V36.02zm-48 2.52L5.541 45h1.414L12 39.955v-1.414zm12 .307l-3.525 3.525L16 46.848v1.414l5.182-5.182L24 40.262v-1.414zm12 0l-3.525 3.525L28 46.848v1.414l5.182-5.182L36 40.262v-1.414zm12 0l-3.525 3.525-.627.627h1.414L48 40.262v-1.414zm12 0l-3.525 3.525L52 46.848v1.414l5.182-5.182L60 40.262v-1.414zm-48 2.521L8.37 45h1.413L12 42.783V41.37zm12 .307l-2.111 2.111L16 49.676v1.416l6.596-6.598L24 43.09v-1.414zm12 0l-2.111 2.111L28 49.676v1.416l6.596-6.598L36 43.09v-1.414zm12 0L46.676 43H48v-1.324zm12 0l-2.111 2.111L52 49.676V50h1.092l5.504-5.506L60 43.09v-1.414zm-48 2.523l-.8.801h.8v-.8zm12 .305l-.697.697-6.797 6.8h1.414L24 45.918v-1.414zm12 0l-.697.697L28 52.506v1.414l8-8.002v-1.414zm24 0l-.697.697-4.797 4.8h1.414L60 45.918v-1.414zm-36 2.828L19.334 52h1.412L24 48.746v-1.414zm12 0l-8 8.002v1.414l8-8.002v-1.414zm24 0L57.332 50h1.414L60 48.746v-1.414zM24 50.16L22.16 52h1.414l.426-.426V50.16zm12 0l-8 8.002v1.414l8-8.002V50.16zm0 2.83L28.99 60h1.414L36 54.404V52.99zm0 2.828L31.818 60h1.414L36 57.232v-1.414zm0 2.828L34.646 60H36v-1.354z"></path></g></g>
        </svg>
      </g><g opacity="1" transform="rotate(0 98.5222 24.404899999999998)">
        <svg width="297.4778" height="36.1553" x="98.5222" y="24.404899999999998" version="1.1" preserveAspectRatio="none" viewBox="3.32 -36.04 296.52000000000004 36.04">
          <g transform="matrix(1 0 0 1 0 0)" class="companyName"><path d="M3.32 0L3.32-28L16.04-28Q20.60-28 24.10-26.26Q27.60-24.52 29.54-21.36Q31.48-18.20 31.48-14L31.48-14Q31.48-9.80 29.54-6.64Q27.60-3.48 24.10-1.74Q20.60 0 16.04 0L16.04 0L3.32 0ZM9.80-5.32L15.72-5.32Q19.92-5.32 22.42-7.66Q24.92-10 24.92-14L24.92-14Q24.92-18 22.42-20.34Q19.92-22.68 15.72-22.68L15.72-22.68L9.80-22.68L9.80-5.32Z M56.88 0L54.40-6L41.40-6L38.92 0L32.28 0L44.76-28L51.16-28L63.68 0L56.88 0ZM43.48-10.92L52.36-10.92L47.92-21.64L43.48-10.92ZM44.32-30.28L49.72-36.04L56.44-36.04L49.20-30.28L44.32-30.28Z M85.88-28L92.28-28L92.28 0L86.96 0L73-17L73 0L66.60 0L66.60-28L71.96-28L85.88-11L85.88-28Z M98.92 0L98.92-28L105.40-28L105.40 0L98.92 0Z M118.48-5.20L133.72-5.20L133.72 0L112.04 0L112.04-28L133.20-28L133.20-22.80L118.48-22.80L118.48-16.72L131.48-16.72L131.48-11.68L118.48-11.68L118.48-5.20Z M138.88 0L138.88-28L145.36-28L145.36-5.28L159.40-5.28L159.40 0L138.88 0Z M195.28 0L192.80-6L179.80-6L177.32 0L170.68 0L183.16-28L189.56-28L202.08 0L195.28 0ZM181.88-10.92L190.76-10.92L186.32-21.64L181.88-10.92ZM182.72-30.28L188.12-36.04L194.84-36.04L187.60-30.28L182.72-30.28Z M229.80 0L222.84 0L217.44-7.80L217.12-7.80L211.48-7.80L211.48 0L205 0L205-28L217.12-28Q220.84-28 223.58-26.76Q226.32-25.52 227.80-23.24Q229.28-20.96 229.28-17.84L229.28-17.84Q229.28-14.72 227.78-12.46Q226.28-10.20 223.52-9L223.52-9L229.80 0ZM222.72-17.84Q222.72-20.20 221.20-21.46Q219.68-22.72 216.76-22.72L216.76-22.72L211.48-22.72L211.48-12.96L216.76-12.96Q219.68-12.96 221.20-14.24Q222.72-15.52 222.72-17.84L222.72-17.84Z M254.88-28L261.32-28L249.20 0L242.80 0L230.72-28L237.72-28L246.24-8L254.88-28Z M283.64 0L281.16-6L268.16-6L265.68 0L259.04 0L271.52-28L277.92-28L290.44 0L283.64 0ZM270.24-10.92L279.12-10.92L274.68-21.64L270.24-10.92Z M293.36 0L293.36-28L299.84-28L299.84 0L293.36 0Z"></path></g>
        </svg>
      </g><g opacity="1" transform="rotate(0 80.4445 0)">
        <svg width="3.6156" height="84.9651" x="80.4445" y="0" version="1.1" preserveAspectRatio="none" viewBox="0 0 3.6156 84.9651">
          <rect x="0" y="0" width="3.6156" height="84.9651" class="companyName shapeStroke-str" style="stroke-width:0;" rx="0px" ry="0px"></rect>
        </svg>
      </g></svg>
